PathFileType	4	(X/Y/Z)	Walk1.trc
DataRate	CameraRate	NumFrames	NumMarkers	Units	OrigDataRate	OrigDataStartFrame	OrigNumFrames
200.000000	200.000000	9	61	mm	200.000000	432	465
Frame#	Times		LFHD		RFHD		CLAV		STRN		LASI		RASI		RACR1		RUA1		RWRR		RWRU		RCAR		LACR1		LUA1		LFA1		LWRU		LCAR		RTH3		RTH2		RTB1		RTB4		LTH1		LTH3		LTH2		LTH4		LLFC		LMFC		LTB1		LTB3		LTB2		LTB4		LLMAL		LMMAL		LMT1		LMT5		LToe		LBHD		RBHD		RTB3		RFA1		RMFC		RMT5		RLFC		RToe		LElbowM		RTH4		RTB2		RLMAL		RMMAL		RMT1		LWRR		RElbow		LPSI		RPSI		RTH1		C7		LCAL		T10		RBack		RElbowM		RCAL		LElbow
			X1	Y1	Z1	X2	Y2	Z2	X3	Y3	Z3	X4	Y4	Z4	X5	Y5	Z5	X6	Y6	Z6	X7	Y7	Z7	X8	Y8	Z8	X9	Y9	Z9	X10	Y10	Z10	X11	Y11	Z11	X12	Y12	Z12	X13	Y13	Z13	X14	Y14	Z14	X15	Y15	Z15	X16	Y16	Z16	X17	Y17	Z17	X18	Y18	Z18	X19	Y19	Z19	X20	Y20	Z20	X21	Y21	Z21	X22	Y22	Z22	X23	Y23	Z23	X24	Y24	Z24	X25	Y25	Z25	X26	Y26	Z26	X27	Y27	Z27	X28	Y28	Z28	X29	Y29	Z29	X30	Y30	Z30	X31	Y31	Z31	X32	Y32	Z32	X33	Y33	Z33	X34	Y34	Z34	X35	Y35	Z35	X36	Y36	Z36	X37	Y37	Z37	X38	Y38	Z38	X39	Y39	Z39	X40	Y40	Z40	X41	Y41	Z41	X42	Y42	Z42	X43	Y43	Z43	X44	Y44	Z44	X45	Y45	Z45	X46	Y46	Z46	X47	Y47	Z47	X48	Y48	Z48	X49	Y49	Z49	X50	Y50	Z50	X51	Y51	Z51	X52	Y52	Z52	X53	Y53	Z53	X54	Y54	Z54	X55	Y55	Z55	X56	Y56	Z56	X57	Y57	Z57	X58	Y58	Z58	X59	Y59	Z59	X60	Y60	Z60	X61	Y61	Z61

432	2.16	1468.1	1565.6	-66.765	1469.7	1570.5	32.581	1387.9	1320.7	-5.4703	1411.8	1190.1	2.4976	1383	919.47	-119.98	1370.4	922.59	128.44	1303	1360	156.75	1290.4	1190.1	210.82	1286.4	780.32	277.51	1348.1	782.1	247.54	1327.2	722.07	299.98	1313.7	1374.1	-157.53	1306.2	1200.4	-221.31	1349.2	914.72	-272.6	1433.2	821.91	-264.83	1419.6	752.69	-299.78	1425.8	604.91	169.32	1442.2	709.23	168.16	1448.6	357.76	116.44	1396.8	288.18	108.88	1327.1	744.9	-179.86	1306.7	578.82	-142.79	1370.5	661.62	-137.67	1315.5	660.1	-162.86	1288.8	441.72	-117.89	1256.9	438.04	11.992	1301.3	339.39	-40.863	1257.3	175.47	-20.349	1267.1	252.49	-91.494	1276.3	257.06	-31.271	1191.4	68.825	-57.809	1199.8	93.224	20.15	1322	29.572	18.179	1293.7	25.234	-65.274	1380.6	24.436	-9.9124	1312.2	1546	-87.024	1318.5	1557.8	58.259	1345.6	219.71	98.978	1297.7	900.92	272.16	1466.4	449.94	16.417	1307.9	67.919	125.43	1483.6	470.24	143.89	1393.4	48.541	92.3	1294.2	1042	-246.11	1392.2	681.47	184.94	1354.7	316.61	143.69	1238.7	157.28	102.56	1271.9	161.15	27.033	1352.9	64.324	51.976	1367.7	799.37	-259.88	1265.5	1026.1	241.9	1203.2	969.31	-52.711	1201.7	965.13	46.632	1358.2	759.71	203.03	1278.6	1425.4	-11.319	1130.6	46.801	-20.683	1203.4	1211.1	-8.3744	1195.4	1298.2	57.933	1245.6	1021.1	165.18	1187.4	152.28	56.206	1286.9	1021.9	-171.47
433	2.165	1475.1	1565.7	-66.613	1476.6	1570.5	32.735	1395	1320.6	-5.4211	1418.9	1189.9	2.4357	1389.5	919.2	-120	1377.8	922.34	128.49	1310.1	1359.8	156.78	1296.7	1190	210.9	1289.1	780.33	277.92	1351.1	781.5	248.47	1329.3	721.8	300.88	1320.9	1373.9	-157.52	1314.4	1200.3	-221.53	1362	915.51	-272.65	1448.5	825.06	-264.4	1436.9	755.35	-298.99	1435.4	606.02	169.36	1450.9	710.48	168.67	1462.4	358.73	116.71	1413	287.48	109.36	1332.1	744.84	-179.67	1309.8	579.02	-142.62	1374.5	661.02	-137.4	1319.6	660.14	-162.64	1290.4	442.08	-117.73	1258.3	438.77	12.095	1302.3	339.61	-40.937	1258	175.91	-20.296	1267.8	252.9	-91.48	1277.2	257.45	-31.258	1191.6	69.448	-57.567	1200.3	93.83	20.366	1322.1	29.55	18.207	1293.7	25.296	-65.126	1380.7	24.411	-10.021	1319.3	1545.9	-87.005	1325.4	1557.6	58.287	1364.2	217.33	99.661	1301.9	900.9	272.52	1477.8	452.05	15.916	1331.7	64.567	126.5	1494.5	471.99	143.5	1417.7	48.009	93.305	1303.8	1041.8	-246.48	1401.1	682.18	185.23	1370.3	314.5	144.32	1259.5	151.3	103.67	1292.2	156.29	27.999	1376.8	62.406	53.004	1383.7	800.76	-259.58	1271	1026.2	241.9	1210	969.23	-52.046	1208.9	965.11	47.283	1366.4	760.04	203.55	1285.7	1425.2	-11.352	1130.8	47.694	-20.228	1210.6	1211	-8.2648	1202.6	1298.1	57.834	1251.5	1021.2	165.09	1208.4	144.61	57.193	1296.6	1021.4	-171.92
434	2.17	1482.2	1565.7	-66.474	1483.6	1570.5	32.878	1402.2	1320.4	-5.3718	1426.1	1189.7	2.3826	1396	918.87	-120.02	1385.3	922	128.52	1317.1	1359.7	156.81	1303.1	1189.9	210.99	1292	780.32	278.33	1354.2	780.87	249.39	1331.4	721.51	301.75	1328.2	1373.7	-157.51	1322.6	1200.1	-221.74	1374.8	916.34	-272.66	1463.7	828.3	-263.89	1454.1	758.14	-298.1	1444.9	607	169.36	1459.4	711.58	169.16	1476.2	359.63	116.94	1429.3	286.76	109.81	1337.1	744.75	-179.5	1313	579.2	-142.45	1378.5	660.43	-137.18	1323.6	660.16	-162.46	1292	442.46	-117.55	1259.7	439.53	12.248	1303.5	339.82	-41.019	1258.6	176.36	-20.258	1268.6	253.32	-91.482	1278.1	257.84	-31.258	1191.8	70.1	-57.343	1200.8	94.456	20.564	1322.2	29.524	18.235	1293.6	25.354	-64.988	1380.8	24.388	-10.121	1326.3	1545.7	-86.998	1332.4	1557.4	58.302	1382.9	214.97	100.32	1306.1	900.84	272.88	1488.9	454.05	15.35	1355.7	61.358	127.55	1505.2	473.59	143.06	1442.2	47.691	94.238	1313.3	1041.5	-246.85	1409.9	682.77	185.51	1385.8	312.27	144.97	1280.6	145.29	104.82	1312.7	151.46	28.984	1400.8	60.682	53.984	1399.6	802.23	-259.25	1276.6	1026.3	241.91	1216.9	969.09	-51.352	1216.1	965.03	47.971	1374.5	760.27	204.07	1292.9	1425	-11.386	1130.9	48.621	-19.787	1217.7	1210.9	-8.1347	1209.7	1297.9	57.748	1257.5	1021.2	165.01	1229.6	136.95	58.219	1306.3	1020.9	-172.39
435	2.175	1489.2	1565.6	-66.346	1490.5	1570.4	33.008	1409.4	1320.2	-5.3224	1433.2	1189.3	2.342	1402.5	918.49	-120.06	1392.8	921.58	128.55	1324.2	1359.4	156.83	1309.4	1189.8	211.09	1294.9	780.29	278.74	1357.4	780.22	250.29	1333.6	721.2	302.6	1335.6	1373.3	-157.5	1330.7	1199.8	-221.92	1387.5	917.19	-272.64	1478.7	831.61	-263.29	1471.2	761.08	-297.13	1454.2	607.84	169.33	1467.9	712.52	169.64	1489.7	360.48	117.12	1445.4	286.03	110.23	1342	744.62	-179.37	1316.1	579.35	-142.27	1382.5	659.83	-137.02	1327.7	660.16	-162.32	1293.7	442.84	-117.34	1261.3	440.29	12.45	1304.7	340.03	-41.109	1259.3	176.8	-20.238	1269.4	253.73	-91.5	1279.1	258.22	-31.274	1192	70.78	-57.142	1201.2	95.098	20.741	1322.3	29.496	18.26	1293.5	25.406	-64.862	1380.8	24.369	-10.213	1333.4	1545.4	-87	1339.3	1557.1	58.306	1401.7	212.65	100.96	1310.3	900.75	273.24	1499.6	455.93	14.716	1379.9	58.331	128.56	1515.6	475.01	142.54	1466.7	47.624	95.096	1322.8	1041.1	-247.22	1418.5	683.24	185.77	1401.5	309.95	145.63	1301.9	139.31	106	1333.4	146.68	29.98	1425	59.185	54.912	1415.3	803.79	-258.88	1282.3	1026.3	241.93	1223.7	968.91	-50.629	1223.3	964.89	48.697	1382.5	760.41	204.59	1300.1	1424.8	-11.421	1131.1	49.582	-19.364	1224.9	1210.7	-7.9844	1216.9	1297.7	57.678	1263.6	1021.1	164.95	1251.2	129.32	59.277	1315.9	1020.3	-172.87
436	2.18	1496.3	1565.5	-66.227	1497.5	1570.3	33.129	1416.6	1319.8	-5.2733	1440.4	1188.9	2.3169	1409	918.05	-120.1	1400.3	921.07	128.56	1331.4	1359.1	156.86	1315.8	1189.6	211.2	1298	780.23	279.15	1360.6	779.55	251.19	1335.9	720.87	303.44	1342.9	1372.9	-157.5	1338.9	1199.4	-222.09	1400.2	918.09	-272.58	1493.6	835	-262.61	1488.3	764.16	-296.08	1463.3	608.54	169.26	1476.3	713.31	170.1	1503.1	361.28	117.27	1461.6	285.31	110.61	1346.9	744.47	-179.27	1319.3	579.48	-142.1	1386.4	659.22	-136.92	1331.8	660.15	-162.21	1295.4	443.22	-117.11	1263.1	441.06	12.695	1306.1	340.22	-41.205	1260.1	177.24	-20.236	1270.2	254.14	-91.535	1280.1	258.6	-31.306	1192.1	71.485	-56.968	1201.7	95.753	20.892	1322.4	29.466	18.283	1293.5	25.451	-64.747	1380.9	24.352	-10.299	1340.6	1545	-87.011	1346.3	1556.7	58.301	1420.5	210.4	101.57	1314.7	900.62	273.61	1510.1	457.68	14.012	1404.3	55.525	129.53	1525.6	476.26	141.95	1491.3	47.843	95.878	1332.2	1040.7	-247.59	1427.1	683.59	186.02	1417.1	307.56	146.3	1323.6	133.39	107.22	1354.2	141.99	30.983	1449.3	57.947	55.784	1431	805.44	-258.49	1288	1026.3	241.97	1230.5	968.67	-49.876	1230.6	964.68	49.461	1390.6	760.43	205.12	1307.3	1424.5	-11.454	1131.2	50.575	-18.964	1232.1	1210.4	-7.8142	1224.1	1297.4	57.625	1269.7	1020.9	164.9	1273.1	121.76	60.365	1325.4	1019.7	-173.37
437	2.185	1503.3	1565.4	-66.118	1504.5	1570.2	33.24	1423.8	1319.4	-5.2252	1447.5	1188.4	2.3093	1415.4	917.57	-120.15	1407.9	920.49	128.56	1338.6	1358.8	156.89	1322.3	1189.3	211.31	1301.1	780.17	279.58	1363.9	778.85	252.06	1338.2	720.53	304.25	1350.3	1372.5	-157.49	1347	1199	-222.23	1412.8	919.02	-272.48	1508.3	838.47	-261.84	1505.2	767.39	-294.95	1472.3	609.09	169.16	1484.5	713.92	170.55	1516.3	362.04	117.38	1477.6	284.61	110.96	1351.8	744.29	-179.19	1322.5	579.59	-141.93	1390.4	658.62	-136.87	1335.9	660.13	-162.14	1297.2	443.6	-116.88	1265	441.81	12.977	1307.5	340.39	-41.304	1260.8	177.67	-20.253	1271.1	254.54	-91.586	1281.2	258.95	-31.354	1192.3	72.215	-56.825	1202.3	96.419	21.013	1322.4	29.436	18.301	1293.4	25.488	-64.645	1381	24.337	-10.375	1347.7	1544.6	-87.03	1353.3	1556.3	58.287	1439.3	208.25	102.15	1319.1	900.47	273.99	1520.1	459.27	13.242	1429	52.981	130.46	1535.4	477.31	141.3	1516	48.378	96.579	1341.7	1040.3	-247.95	1435.5	683.81	186.25	1432.7	305.12	146.99	1345.5	127.58	108.46	1375.1	137.41	31.987	1473.7	56.999	56.593	1446.6	807.18	-258.08	1293.9	1026.2	242.01	1237.3	968.37	-49.091	1237.9	964.41	50.265	1398.5	760.36	205.65	1314.6	1424.1	-11.487	1131.4	51.598	-18.59	1239.4	1210.1	-7.6245	1231.3	1297.1	57.59	1275.9	1020.7	164.88	1295.3	114.33	61.476	1334.9	1019	-173.89
438	2.19	1510.4	1565.2	-66.016	1511.5	1569.9	33.343	1431.1	1319	-5.1786	1454.7	1187.9	2.3201	1421.8	917.05	-120.2	1415.5	919.84	128.54	1345.8	1358.4	156.92	1328.8	1189	211.42	1304.3	780.09	280.01	1367.3	778.14	252.93	1340.7	720.16	305.04	1357.7	1371.9	-157.49	1355.2	1198.5	-222.35	1425.4	920	-272.35	1522.8	842.01	-260.99	1521.9	770.76	-293.75	1481	609.48	169.03	1492.7	714.36	170.99	1529.3	362.75	117.48	1493.6	283.96	111.29	1356.6	744.08	-179.13	1325.7	579.67	-141.76	1394.4	658.02	-136.89	1340	660.11	-162.08	1299	443.97	-116.63	1267.1	442.54	13.286	1309	340.55	-41.405	1261.7	178.09	-20.289	1272.1	254.94	-91.652	1282.4	259.29	-31.417	1192.5	72.968	-56.716	1202.8	97.093	21.103	1322.5	29.407	18.314	1293.3	25.516	-64.553	1381	24.321	-10.442	1354.9	1544.1	-87.055	1360.3	1555.8	58.266	1458.2	206.23	102.71	1323.6	900.29	274.37	1529.8	460.71	12.412	1453.7	50.735	131.33	1544.8	478.16	140.58	1540.7	49.259	97.194	1351.1	1039.8	-248.3	1443.8	683.91	186.47	1448.3	302.65	147.69	1367.6	121.93	109.71	1396.2	132.98	32.987	1498.1	56.372	57.334	1462	809	-257.64	1299.8	1026.1	242.07	1244.2	968.03	-48.273	1245.2	964.08	51.108	1406.4	760.18	206.19	1321.8	1423.6	-11.517	1131.5	52.652	-18.244	1246.6	1209.8	-7.416	1238.6	1296.7	57.574	1282.1	1020.4	164.87	1317.8	107.06	62.606	1344.4	1018.2	-174.41
439	2.195	1517.5	1564.9	-65.92	1518.5	1569.7	33.44	1438.3	1318.4	-5.1344	1462	1187.2	2.3491	1428.2	916.49	-120.26	1423.2	919.13	128.51	1353.1	1357.9	156.95	1335.4	1188.7	211.54	1307.6	780	280.46	1370.7	777.41	253.77	1343.2	719.78	305.8	1365.1	1371.3	-157.48	1363.3	1197.9	-222.44	1437.8	921.03	-272.18	1537.2	845.6	-260.06	1538.6	774.26	-292.48	1489.5	609.7	168.87	1500.8	714.62	171.41	1542.1	363.42	117.55	1509.5	283.37	111.59	1361.4	743.86	-179.09	1328.9	579.72	-141.6	1398.4	657.42	-136.95	1344.1	660.09	-162.04	1300.9	444.33	-116.39	1269.4	443.24	13.614	1310.7	340.69	-41.505	1262.5	178.5	-20.343	1273.1	255.32	-91.731	1283.6	259.61	-31.495	1192.7	73.744	-56.642	1203.3	97.775	21.161	1322.6	29.38	18.32	1293.3	25.536	-64.471	1381.1	24.302	-10.495	1362	1543.5	-87.085	1367.4	1555.3	58.239	1477.2	204.35	103.23	1328.3	900.08	274.76	1539.1	461.97	11.532	1478.6	48.825	132.14	1553.9	478.8	139.81	1565.4	50.506	97.717	1360.6	1039.3	-248.64	1452	683.87	186.68	1464	300.19	148.4	1390	116.48	110.95	1417.3	128.74	33.978	1522.6	56.09	57.999	1477.3	810.91	-257.19	1305.8	1025.9	242.14	1251	967.64	-47.42	1252.5	963.69	51.989	1414.3	759.89	206.74	1329.2	1423.1	-11.545	1131.7	53.738	-17.93	1253.8	1209.4	-7.1889	1245.9	1296.3	57.577	1288.5	1020.1	164.89	1340.6	99.995	63.751	1353.7	1017.4	-174.93
440	2.2	1524.6	1564.6	-65.829	1525.5	1569.3	33.532	1445.7	1317.8	-5.0934	1469.2	1186.5	2.3953	1434.6	915.9	-120.33	1430.9	918.36	128.47	1360.4	1357.4	156.98	1342	1188.3	211.66	1311	779.91	280.92	1374.3	776.66	254.6	1345.9	719.38	306.55	1372.5	1370.7	-157.47	1371.4	1197.3	-222.51	1450.2	922.11	-271.97	1551.4	849.25	-259.05	1555	777.9	-291.15	1497.8	609.76	168.7	1508.7	714.7	171.82	1554.7	364.07	117.62	1525.3	282.84	111.87	1366.1	743.61	-179.06	1332.2	579.76	-141.46	1402.4	656.82	-137.07	1348.2	660.06	-162	1303	444.68	-116.17	1271.8	443.89	13.948	1312.4	340.82	-41.606	1263.4	178.89	-20.415	1274.3	255.69	-91.821	1284.9	259.91	-31.583	1192.9	74.543	-56.598	1203.9	98.465	21.19	1322.6	29.356	18.321	1293.2	25.548	-64.399	1381.1	24.28	-10.536	1369.2	1542.9	-87.118	1374.4	1554.7	58.209	1496.1	202.65	103.73	1333	899.85	275.16	1548	463.02	10.618	1503.6	47.282	132.88	1562.6	479.21	139	1590.1	52.14	98.14	1370	1038.7	-248.96	1460.1	683.69	186.87	1479.6	297.75	149.12	1412.6	111.29	112.19	1438.6	124.73	34.956	1547	56.177	58.583	1492.4	812.9	-256.73	1311.9	1025.7	242.23	1257.8	967.19	-46.532	1259.9	963.24	52.908	1422.1	759.49	207.29	1336.5	1422.6	-11.57	1131.9	54.858	-17.647	1261.1	1208.9	-6.9435	1253.3	1295.8	57.601	1294.9	1019.7	164.93	1363.6	93.176	64.908	1363.1	1016.5	-175.46
